<?xml version="1.0" encoding="utf-8"?>
<!-- Generator: Adobe Illustrator 21.0.0, SVG Export Plug-In . SVG Version: 6.00 Build 0)  -->
<svg version="1.1" id="Layer_1" xmlns="http://www.w3.org/2000/svg" xmlns:xlink="http://www.w3.org/1999/xlink" x="0px" y="0px"
	 viewBox="0 0 61.4 73.9" style="enable-background:new 0 0 61.4 73.9;" xml:space="preserve">
<title>cafe_1Icon_5px_grid</title>
<g>
	<path d="M50.6,13.5c3.7,0,6.8-3,6.8-6.8S54.4,0,50.6,0s-6.8,3-6.8,6.8C43.9,10.5,46.9,13.5,50.6,13.5z M50.6,4
		c1.5,0,2.8,1.2,2.8,2.8s-1.2,2.8-2.8,2.8s-2.8-1.2-2.8-2.8C47.9,5.2,49.1,4,50.6,4C50.6,4,50.6,4,50.6,4L50.6,4z"/>
	<path d="M59.4,42.8h-2V22c0-3.7-3-6.8-6.8-6.8c-3.7,0-6.8,3-6.8,6.8v13.2c0,0.8-0.7,1.5-1.5,1.5c-0.8,0-1.5-0.7-1.5-1.5v-4.1
		c0-3.3-2.7-5.9-5.9-5.9c-3.3,0-5.9,2.7-5.9,5.9v11.6H10.5C4.7,42.7,0,47.4,0,53.2s4.6,10.5,10.4,10.5c1.2,0,2.4-0.2,3.6-0.6
		c2.1,2.8,4.8,5.1,7.8,6.9h-5.4c-1.1,0-2,0.9-2,2s0.9,2,2,2h37c1.1,0,2-0.9,2-2s-0.9-2-2-2H48c6.2-3.5,10.6-9.4,12.5-16.2v-0.1
		c0.6-2.2,0.9-4.5,0.9-6.7v-2.2C61.4,43.6,60.5,42.8,59.4,42.8z M18.7,46.8h38.7V47c0,1.4-0.1,2.9-0.4,4.3h-44
		c-0.3-1.4-0.4-2.8-0.4-4.2c0,0,0-0.1,0-0.1v-0.2H18.7z M33,31.1c0-1.1,0.9-1.9,1.9-1.9s1.9,0.9,1.9,1.9v4.1c0,3.1,2.5,5.5,5.5,5.5
		c3.1,0,5.5-2.5,5.5-5.5V22c0-1.5,1.2-2.8,2.8-2.8c1.5,0,2.8,1.2,2.8,2.8v20.8H33V31.1z M14.1,55.3h41.7
		c-4.6,11.5-17.6,17.1-29.1,12.5C20.9,65.5,16.4,61,14.1,55.3z M10.5,59.7c-3.6,0-6.5-2.9-6.5-6.5c0-2.8,1.8-5.3,4.5-6.1
		c0,2.2,0.3,4.4,0.9,6.6v0.1c0.5,2,1.3,4,2.3,5.8C11.3,59.6,10.9,59.7,10.5,59.7L10.5,59.7z"/>
</g>
</svg>
